<svg width="298" height="78" viewBox="0 0 298 78" fill="none" xmlns="http://www.w3.org/2000/svg">
<path d="M157.5 15.7734H142.5L141 5.77344L146.5 9.27344L150 1.77344L153.5 9.27344L159 6.27344L157.5 15.7734Z" stroke="#B09E80" stroke-opacity="0.8" stroke-width="1.5"/>
<path d="M114.89 66.8234V73.7734H113.75V66.8234H114.89ZM119.997 73.7734L118.397 70.9934H117.527V73.7734H116.387V66.8234H118.787C119.32 66.8234 119.77 66.9168 120.137 67.1034C120.51 67.2901 120.787 67.5401 120.967 67.8534C121.153 68.1668 121.247 68.5168 121.247 68.9034C121.247 69.3568 121.113 69.7701 120.847 70.1434C120.587 70.5101 120.183 70.7601 119.637 70.8934L121.357 73.7734H119.997ZM117.527 70.0834H118.787C119.213 70.0834 119.533 69.9768 119.747 69.7634C119.967 69.5501 120.077 69.2634 120.077 68.9034C120.077 68.5434 119.97 68.2634 119.757 68.0634C119.543 67.8568 119.22 67.7534 118.787 67.7534H117.527V70.0834ZM125.875 73.8434C125.228 73.8434 124.632 73.6934 124.085 73.3934C123.545 73.0868 123.115 72.6634 122.795 72.1234C122.482 71.5768 122.325 70.9634 122.325 70.2834C122.325 69.6034 122.482 68.9934 122.795 68.4534C123.115 67.9134 123.545 67.4934 124.085 67.1934C124.632 66.8868 125.228 66.7334 125.875 66.7334C126.528 66.7334 127.125 66.8868 127.665 67.1934C128.212 67.4934 128.642 67.9134 128.955 68.4534C129.268 68.9934 129.425 69.6034 129.425 70.2834C129.425 70.9634 129.268 71.5768 128.955 72.1234C128.642 72.6634 128.212 73.0868 127.665 73.3934C127.125 73.6934 126.528 73.8434 125.875 73.8434ZM125.875 72.8534C126.335 72.8534 126.745 72.7501 127.105 72.5434C127.465 72.3301 127.745 72.0301 127.945 71.6434C128.152 71.2501 128.255 70.7968 128.255 70.2834C128.255 69.7701 128.152 69.3201 127.945 68.9334C127.745 68.5468 127.465 68.2501 127.105 68.0434C126.745 67.8368 126.335 67.7334 125.875 67.7334C125.415 67.7334 125.005 67.8368 124.645 68.0434C124.285 68.2501 124.002 68.5468 123.795 68.9334C123.595 69.3201 123.495 69.7701 123.495 70.2834C123.495 70.7968 123.595 71.2501 123.795 71.6434C124.002 72.0301 124.285 72.3301 124.645 72.5434C125.005 72.7501 125.415 72.8534 125.875 72.8534ZM136.257 73.7734H135.117L131.687 68.5834V73.7734H130.547V66.8134H131.687L135.117 71.9934V66.8134H136.257V73.7734ZM144.442 66.8234V67.7534H141.492V69.8034H143.792V70.7334H141.492V73.7734H140.352V66.8234H144.442ZM149.688 72.3534H146.778L146.278 73.7734H145.088L147.578 66.8134H148.898L151.388 73.7734H150.188L149.688 72.3534ZM149.368 71.4234L148.238 68.1934L147.098 71.4234H149.368ZM152.091 70.2834C152.091 69.6034 152.247 68.9934 152.561 68.4534C152.881 67.9134 153.311 67.4934 153.851 67.1934C154.397 66.8868 154.994 66.7334 155.641 66.7334C156.381 66.7334 157.037 66.9168 157.611 67.2834C158.191 67.6434 158.611 68.1568 158.871 68.8234H157.501C157.321 68.4568 157.071 68.1834 156.751 68.0034C156.431 67.8234 156.061 67.7334 155.641 67.7334C155.181 67.7334 154.771 67.8368 154.411 68.0434C154.051 68.2501 153.767 68.5468 153.561 68.9334C153.361 69.3201 153.261 69.7701 153.261 70.2834C153.261 70.7968 153.361 71.2468 153.561 71.6334C153.767 72.0201 154.051 72.3201 154.411 72.5334C154.771 72.7401 155.181 72.8434 155.641 72.8434C156.061 72.8434 156.431 72.7534 156.751 72.5734C157.071 72.3934 157.321 72.1201 157.501 71.7534H158.871C158.611 72.4201 158.191 72.9334 157.611 73.2934C157.037 73.6534 156.381 73.8334 155.641 73.8334C154.987 73.8334 154.391 73.6834 153.851 73.3834C153.311 73.0768 152.881 72.6534 152.561 72.1134C152.247 71.5734 152.091 70.9634 152.091 70.2834ZM164.695 66.8234V67.7534H162.845V73.7734H161.705V67.7534H159.845V66.8234H164.695ZM169.02 73.8434C168.373 73.8434 167.776 73.6934 167.23 73.3934C166.69 73.0868 166.26 72.6634 165.94 72.1234C165.626 71.5768 165.47 70.9634 165.47 70.2834C165.47 69.6034 165.626 68.9934 165.94 68.4534C166.26 67.9134 166.69 67.4934 167.23 67.1934C167.776 66.8868 168.373 66.7334 169.02 66.7334C169.673 66.7334 170.27 66.8868 170.81 67.1934C171.356 67.4934 171.786 67.9134 172.1 68.4534C172.413 68.9934 172.57 69.6034 172.57 70.2834C172.57 70.9634 172.413 71.5768 172.1 72.1234C171.786 72.6634 171.356 73.0868 170.81 73.3934C170.27 73.6934 169.673 73.8434 169.02 73.8434ZM169.02 72.8534C169.48 72.8534 169.89 72.7501 170.25 72.5434C170.61 72.3301 170.89 72.0301 171.09 71.6434C171.296 71.2501 171.4 70.7968 171.4 70.2834C171.4 69.7701 171.296 69.3201 171.09 68.9334C170.89 68.5468 170.61 68.2501 170.25 68.0434C169.89 67.8368 169.48 67.7334 169.02 67.7334C168.56 67.7334 168.15 67.8368 167.79 68.0434C167.43 68.2501 167.146 68.5468 166.94 68.9334C166.74 69.3201 166.64 69.7701 166.64 70.2834C166.64 70.7968 166.74 71.2501 166.94 71.6434C167.146 72.0301 167.43 72.3301 167.79 72.5434C168.15 72.7501 168.56 72.8534 169.02 72.8534ZM177.301 73.7734L175.701 70.9934H174.831V73.7734H173.691V66.8234H176.091C176.625 66.8234 177.075 66.9168 177.441 67.1034C177.815 67.2901 178.091 67.5401 178.271 67.8534C178.458 68.1668 178.551 68.5168 178.551 68.9034C178.551 69.3568 178.418 69.7701 178.151 70.1434C177.891 70.5101 177.488 70.7601 176.941 70.8934L178.661 73.7734H177.301ZM174.831 70.0834H176.091C176.518 70.0834 176.838 69.9768 177.051 69.7634C177.271 69.5501 177.381 69.2634 177.381 68.9034C177.381 68.5434 177.275 68.2634 177.061 68.0634C176.848 67.8568 176.525 67.7534 176.091 67.7534H174.831V70.0834ZM185.16 66.8234L182.86 71.2534V73.7734H181.72V71.2534L179.41 66.8234H180.68L182.29 70.2334L183.9 66.8234H185.16Z" fill="#B09E80"/>
<path d="M267.04 54.8434C266.573 54.8434 266.153 54.7634 265.78 54.6034C265.407 54.4368 265.113 54.2034 264.9 53.9034C264.687 53.6034 264.58 53.2534 264.58 52.8534H265.8C265.827 53.1534 265.943 53.4001 266.15 53.5934C266.363 53.7868 266.66 53.8834 267.04 53.8834C267.433 53.8834 267.74 53.7901 267.96 53.6034C268.18 53.4101 268.29 53.1634 268.29 52.8634C268.29 52.6301 268.22 52.4401 268.08 52.2934C267.947 52.1468 267.777 52.0334 267.57 51.9534C267.37 51.8734 267.09 51.7868 266.73 51.6934C266.277 51.5734 265.907 51.4534 265.62 51.3334C265.34 51.2068 265.1 51.0134 264.9 50.7534C264.7 50.4934 264.6 50.1468 264.6 49.7134C264.6 49.3134 264.7 48.9634 264.9 48.6634C265.1 48.3634 265.38 48.1334 265.74 47.9734C266.1 47.8134 266.517 47.7334 266.99 47.7334C267.663 47.7334 268.213 47.9034 268.64 48.2434C269.073 48.5768 269.313 49.0368 269.36 49.6234H268.1C268.08 49.3701 267.96 49.1534 267.74 48.9734C267.52 48.7934 267.23 48.7034 266.87 48.7034C266.543 48.7034 266.277 48.7868 266.07 48.9534C265.863 49.1201 265.76 49.3601 265.76 49.6734C265.76 49.8868 265.823 50.0634 265.95 50.2034C266.083 50.3368 266.25 50.4434 266.45 50.5234C266.65 50.6034 266.923 50.6901 267.27 50.7834C267.73 50.9101 268.103 51.0368 268.39 51.1634C268.683 51.2901 268.93 51.4868 269.13 51.7534C269.337 52.0134 269.44 52.3634 269.44 52.8034C269.44 53.1568 269.343 53.4901 269.15 53.8034C268.963 54.1168 268.687 54.3701 268.32 54.5634C267.96 54.7501 267.533 54.8434 267.04 54.8434ZM276.495 54.7734H275.355L271.925 49.5834V54.7734H270.785V47.8134H271.925L275.355 52.9934V47.8134H276.495V54.7734ZM277.612 51.2834C277.612 50.6034 277.769 49.9934 278.082 49.4534C278.402 48.9134 278.832 48.4934 279.372 48.1934C279.919 47.8868 280.516 47.7334 281.162 47.7334C281.902 47.7334 282.559 47.9168 283.132 48.2834C283.712 48.6434 284.132 49.1568 284.392 49.8234H283.022C282.842 49.4568 282.592 49.1834 282.272 49.0034C281.952 48.8234 281.582 48.7334 281.162 48.7334C280.702 48.7334 280.292 48.8368 279.932 49.0434C279.572 49.2501 279.289 49.5468 279.082 49.9334C278.882 50.3201 278.782 50.7701 278.782 51.2834C278.782 51.7968 278.882 52.2468 279.082 52.6334C279.289 53.0201 279.572 53.3201 279.932 53.5334C280.292 53.7401 280.702 53.8434 281.162 53.8434C281.582 53.8434 281.952 53.7534 282.272 53.5734C282.592 53.3934 282.842 53.1201 283.022 52.7534H284.392C284.132 53.4201 283.712 53.9334 283.132 54.2934C282.559 54.6534 281.902 54.8334 281.162 54.8334C280.509 54.8334 279.912 54.6834 279.372 54.3834C278.832 54.0768 278.402 53.6534 278.082 53.1134C277.769 52.5734 277.612 51.9634 277.612 51.2834Z" fill="#B09E80"/>
<path d="M56.2 25.1734L58.88 49.7734C58.9067 50.1468 58.96 50.5468 59.04 50.9734C59.12 51.4001 59.2267 51.8134 59.36 52.2134C59.52 52.6134 59.7333 52.9868 60 53.3334C60.2667 53.6534 60.6133 53.8801 61.04 54.0134C61.6267 54.2001 62.1467 54.3068 62.6 54.3334C63.08 54.3601 63.4267 54.3734 63.64 54.3734C63.8533 54.3734 63.96 54.4401 63.96 54.5734C63.96 54.7068 63.88 54.8001 63.72 54.8534C63.56 54.9068 63.36 54.9334 63.12 54.9334C62.9067 54.9334 62.5067 54.9334 61.92 54.9334C61.3333 54.9334 60.6933 54.9201 60 54.8934C59.3067 54.8934 58.6267 54.8801 57.96 54.8534C57.32 54.8268 56.8133 54.8001 56.44 54.7734C55.9867 54.7201 55.68 54.6668 55.52 54.6134C55.3867 54.5601 55.32 54.4801 55.32 54.3734C55.32 54.2134 55.4133 54.1201 55.6 54.0934C55.7067 54.0668 55.7733 53.9201 55.8 53.6534C55.8267 53.3601 55.8133 53.0268 55.76 52.6534L53.84 31.8934H53.72L43.92 52.6934C43.4933 53.5734 43.2133 54.1468 43.08 54.4134C42.9467 54.6801 42.7867 54.8134 42.6 54.8134C42.4667 54.8134 42.32 54.6934 42.16 54.4534C42 54.1868 41.7333 53.6934 41.36 52.9734C41.0933 52.4934 40.7067 51.7601 40.2 50.7734C39.72 49.7601 39.2267 48.7468 38.72 47.7334C38.2133 46.7201 37.76 45.8268 37.36 45.0534C36.96 44.2534 36.7333 43.8001 36.68 43.6934C36.6267 43.5868 36.4667 43.2534 36.2 42.6934C35.9333 42.1334 35.6133 41.4668 35.24 40.6934C34.8667 39.8934 34.4667 39.0401 34.04 38.1334C33.64 37.2268 33.2533 36.3734 32.88 35.5734C32.5067 34.7734 32.1867 34.0801 31.92 33.4934C31.6533 32.8801 31.48 32.4801 31.4 32.2934H31.24L29.64 50.8534C29.6133 51.1734 29.6 51.5068 29.6 51.8534C29.6 52.2001 29.6 52.5468 29.6 52.8934C29.6 53.1868 29.6933 53.4534 29.88 53.6934C30.0933 53.9334 30.3467 54.0801 30.64 54.1334C30.9867 54.2134 31.2933 54.2668 31.56 54.2934C31.8267 54.3201 32.0267 54.3334 32.16 54.3334C32.3733 54.3334 32.48 54.4001 32.48 54.5334C32.48 54.7734 32.24 54.8934 31.76 54.8934C31.3867 54.8934 31 54.8801 30.6 54.8534C30.2 54.8534 29.8133 54.8401 29.44 54.8134C29.0933 54.8134 28.7867 54.8001 28.52 54.7734C28.28 54.7734 28.12 54.7734 28.04 54.7734C27.96 54.7734 27.7867 54.7734 27.52 54.7734C27.2533 54.8001 26.9467 54.8134 26.6 54.8134C26.28 54.8401 25.9467 54.8534 25.6 54.8534C25.2533 54.8801 24.9467 54.8934 24.68 54.8934C24.2267 54.8934 24 54.7734 24 54.5334C24 54.4001 24.1333 54.3334 24.4 54.3334C24.56 54.3334 24.72 54.3334 24.88 54.3334C25.0667 54.3068 25.3067 54.2668 25.6 54.2134C26.2667 54.0801 26.68 53.6934 26.84 53.0534C27 52.3868 27.12 51.6668 27.2 50.8934L30.08 24.8134C30.1333 24.3334 30.28 24.0934 30.52 24.0934C30.7333 24.0934 30.9333 24.2934 31.12 24.6934L43.36 49.8534L55.12 24.7334C55.3067 24.3068 55.5067 24.0934 55.72 24.0934C55.96 24.0934 56.12 24.4534 56.2 25.1734ZM66.5522 39.7334C66.5522 38.6668 66.6855 37.5334 66.9522 36.3334C67.2189 35.1334 67.6322 33.9601 68.1922 32.8134C68.7522 31.6401 69.4455 30.5334 70.2722 29.4934C71.1255 28.4268 72.1389 27.4934 73.3122 26.6934C74.4855 25.8934 75.8189 25.2668 77.3122 24.8134C78.8055 24.3334 80.4722 24.0934 82.3122 24.0934C84.5522 24.0934 86.6322 24.4401 88.5522 25.1334C90.4722 25.8268 92.1255 26.8268 93.5122 28.1334C94.9255 29.4134 96.0322 30.9868 96.8322 32.8534C97.6322 34.6934 98.0322 36.7734 98.0322 39.0934C98.0322 41.3334 97.6455 43.4534 96.8722 45.4534C96.1255 47.4268 95.0589 49.1601 93.6722 50.6534C92.2855 52.1201 90.6055 53.2934 88.6322 54.1734C86.6589 55.0268 84.4722 55.4534 82.0722 55.4534C79.3255 55.4534 76.9655 54.9734 74.9922 54.0134C73.0455 53.0534 71.4455 51.8134 70.1922 50.2934C68.9389 48.7734 68.0189 47.0934 67.4322 45.2534C66.8455 43.3868 66.5522 41.5468 66.5522 39.7334ZM70.3522 38.6134C70.3522 40.9334 70.6722 43.0401 71.3122 44.9334C71.9789 46.8268 72.8855 48.4401 74.0322 49.7734C75.2055 51.1068 76.5655 52.1334 78.1122 52.8534C79.6589 53.5734 81.3389 53.9334 83.1522 53.9334C84.0589 53.9334 85.1389 53.7734 86.3922 53.4534C87.6455 53.1068 88.8455 52.4401 89.9922 51.4534C91.1655 50.4668 92.1522 49.0801 92.9522 47.2934C93.7789 45.4801 94.1922 43.1201 94.1922 40.2134C94.1922 37.8134 93.8455 35.6934 93.1522 33.8534C92.4855 32.0134 91.5922 30.4801 90.4722 29.2534C89.3522 28.0001 88.0589 27.0534 86.5922 26.4134C85.1255 25.7734 83.6055 25.4534 82.0322 25.4534C80.3522 25.4534 78.7922 25.7334 77.3522 26.2934C75.9389 26.8268 74.7122 27.6534 73.6722 28.7734C72.6322 29.8668 71.8189 31.2401 71.2322 32.8934C70.6455 34.5201 70.3522 36.4268 70.3522 38.6134ZM107.063 30.2934L107.583 49.4534C107.609 50.2801 107.649 50.9734 107.703 51.5334C107.783 52.0668 107.876 52.5201 107.983 52.8934C108.116 53.2401 108.276 53.5068 108.463 53.6934C108.649 53.8801 108.876 54.0134 109.143 54.0934C109.516 54.2001 109.889 54.2668 110.263 54.2934C110.663 54.3201 110.956 54.3334 111.143 54.3334C111.356 54.3334 111.463 54.4134 111.463 54.5734C111.463 54.7868 111.223 54.8934 110.743 54.8934C109.596 54.8934 108.649 54.8668 107.903 54.8134C107.156 54.7868 106.689 54.7734 106.503 54.7734C106.316 54.7734 105.849 54.7868 105.103 54.8134C104.383 54.8668 103.569 54.8934 102.663 54.8934C102.236 54.8934 102.023 54.7868 102.023 54.5734C102.023 54.4134 102.129 54.3334 102.343 54.3334C102.503 54.3334 102.743 54.3201 103.063 54.2934C103.383 54.2668 103.689 54.2001 103.983 54.0934C104.489 53.9601 104.809 53.5334 104.943 52.8134C105.103 52.0934 105.183 50.8268 105.183 49.0134L105.223 26.0934C105.223 25.3201 105.249 24.8001 105.303 24.5334C105.383 24.2401 105.503 24.0934 105.663 24.0934C105.823 24.0934 106.036 24.2534 106.303 24.5734C106.596 24.8934 106.849 25.1601 107.063 25.3734C107.223 25.5334 107.676 26.0401 108.423 26.8934C109.196 27.7201 110.169 28.7601 111.343 30.0134C112.516 31.2668 113.823 32.6801 115.263 34.2534C116.729 35.8268 118.236 37.4401 119.783 39.0934C120.769 40.1601 121.756 41.2401 122.743 42.3334C123.756 43.4268 124.703 44.4534 125.583 45.4134C126.463 46.3734 127.236 47.2268 127.903 47.9734C128.569 48.6934 129.063 49.2134 129.383 49.5334L128.943 29.2134C128.916 27.9068 128.796 26.9868 128.583 26.4534C128.396 25.9201 127.996 25.5734 127.383 25.4134C127.009 25.3334 126.623 25.2801 126.223 25.2534C125.849 25.2268 125.583 25.2134 125.423 25.2134C125.209 25.2134 125.103 25.1201 125.103 24.9334C125.103 24.7468 125.369 24.6534 125.903 24.6534C126.356 24.6534 126.796 24.6668 127.223 24.6934C127.676 24.6934 128.089 24.7068 128.463 24.7334C128.863 24.7334 129.196 24.7468 129.463 24.7734C129.756 24.7734 129.956 24.7734 130.063 24.7734C130.276 24.7734 130.689 24.7601 131.303 24.7334C131.916 24.6801 132.636 24.6534 133.463 24.6534C133.943 24.6534 134.183 24.7468 134.183 24.9334C134.183 25.1201 134.036 25.2134 133.743 25.2134C133.636 25.2134 133.503 25.2268 133.343 25.2534C133.209 25.2534 133.023 25.2801 132.783 25.3334C132.116 25.4668 131.703 25.8001 131.543 26.3334C131.383 26.8401 131.303 27.6934 131.303 28.8934L131.223 52.3334C131.223 53.0001 131.209 53.5201 131.183 53.8934C131.183 54.2668 131.169 54.5468 131.143 54.7334C131.116 54.9201 131.076 55.0401 131.023 55.0934C130.996 55.1468 130.943 55.1734 130.863 55.1734C130.783 55.1734 130.676 55.1334 130.543 55.0534C130.436 55.0001 130.276 54.8801 130.063 54.6934C129.849 54.5068 129.569 54.2534 129.223 53.9334C128.903 53.5868 128.476 53.1468 127.943 52.6134C127.836 52.5068 127.423 52.1068 126.703 51.4134C126.009 50.6934 125.156 49.8134 124.143 48.7734C123.129 47.7068 122.036 46.5601 120.863 45.3334C119.689 44.1068 118.569 42.9201 117.503 41.7734C116.329 40.5201 115.183 39.2934 114.063 38.0934C112.969 36.8668 111.956 35.7334 111.023 34.6934C110.089 33.6534 109.276 32.7601 108.583 32.0134C107.889 31.2401 107.383 30.6668 107.063 30.2934ZM152.913 26.3734V43.2934C152.913 45.2134 152.913 46.9334 152.913 48.4534C152.94 49.9468 153.007 51.1201 153.113 51.9734C153.167 52.5601 153.287 53.0534 153.473 53.4534C153.66 53.8534 154.06 54.0934 154.673 54.1734C154.967 54.2268 155.287 54.2668 155.633 54.2934C156.007 54.3201 156.287 54.3334 156.473 54.3334C156.687 54.3334 156.793 54.4134 156.793 54.5734C156.793 54.7868 156.58 54.8934 156.153 54.8934C155.593 54.8934 155.033 54.8801 154.473 54.8534C153.913 54.8534 153.393 54.8401 152.913 54.8134C152.46 54.8134 152.073 54.8001 151.753 54.7734C151.46 54.7734 151.287 54.7734 151.233 54.7734C151.18 54.7734 150.993 54.7734 150.673 54.7734C150.38 54.8001 150.033 54.8134 149.633 54.8134C149.233 54.8401 148.82 54.8534 148.393 54.8534C147.967 54.8801 147.607 54.8934 147.313 54.8934C146.887 54.8934 146.673 54.7868 146.673 54.5734C146.673 54.4134 146.78 54.3334 146.993 54.3334C147.18 54.3334 147.38 54.3201 147.593 54.2934C147.807 54.2668 148.007 54.2268 148.193 54.1734C148.593 54.0934 148.86 53.8534 148.993 53.4534C149.153 53.0534 149.273 52.5601 149.353 51.9734C149.46 51.1201 149.513 49.9468 149.513 48.4534C149.54 46.9334 149.553 45.2134 149.553 43.2934V26.3734L143.633 26.4534C143.02 26.4534 142.487 26.4801 142.033 26.5334C141.607 26.5868 141.233 26.6668 140.913 26.7734C140.593 26.8534 140.327 26.9734 140.113 27.1334C139.9 27.2934 139.713 27.4934 139.553 27.7334C139.34 28.0801 139.18 28.3468 139.073 28.5334C138.993 28.6934 138.927 28.8401 138.873 28.9734C138.767 29.2401 138.633 29.3734 138.473 29.3734C138.34 29.3734 138.273 29.2534 138.273 29.0134C138.273 28.9068 138.313 28.6534 138.393 28.2534C138.473 27.8268 138.567 27.3734 138.673 26.8934C138.78 26.4134 138.873 25.9734 138.953 25.5734C139.06 25.1734 139.127 24.9334 139.153 24.8534C139.207 24.7201 139.26 24.5601 139.313 24.3734C139.393 24.1868 139.473 24.0934 139.553 24.0934C139.687 24.0934 139.873 24.1601 140.113 24.2934C140.38 24.4268 140.78 24.5201 141.313 24.5734C141.9 24.6268 142.513 24.6801 143.153 24.7334C143.793 24.7601 144.233 24.7734 144.473 24.7734H159.473C160.113 24.7734 160.66 24.7601 161.113 24.7334C161.593 24.6801 161.993 24.6268 162.313 24.5734C162.607 24.5201 162.847 24.4801 163.033 24.4534C163.22 24.4001 163.353 24.3734 163.433 24.3734C163.54 24.3734 163.593 24.4268 163.593 24.5334C163.62 24.6134 163.633 24.7201 163.633 24.8534C163.633 25.1468 163.62 25.5201 163.593 25.9734C163.593 26.4268 163.58 26.8801 163.553 27.3334C163.553 27.7868 163.54 28.2001 163.513 28.5734C163.513 28.9201 163.513 29.1468 163.513 29.2534C163.513 29.6001 163.42 29.7734 163.233 29.7734C163.127 29.7734 163.047 29.7334 162.993 29.6534C162.967 29.5734 162.94 29.3868 162.913 29.0934L162.873 28.6534C162.847 28.3601 162.753 28.0801 162.593 27.8134C162.433 27.5468 162.167 27.3201 161.793 27.1334C161.447 26.9468 160.953 26.8001 160.313 26.6934C159.7 26.5601 158.913 26.4801 157.953 26.4534L152.913 26.3734ZM166.933 50.4934L176.013 25.6534C176.253 24.9868 176.426 24.5601 176.533 24.3734C176.639 24.1868 176.759 24.0934 176.893 24.0934C177.026 24.0934 177.146 24.1868 177.253 24.3734C177.359 24.5334 177.533 24.9201 177.773 25.5334C177.879 25.8001 178.119 26.4401 178.493 27.4534C178.893 28.4401 179.359 29.6668 179.893 31.1334C180.453 32.5734 181.066 34.1601 181.733 35.8934C182.399 37.6268 183.053 39.3468 183.693 41.0534C184.359 42.7334 184.986 44.3334 185.573 45.8534C186.186 47.3734 186.693 48.6401 187.093 49.6534C187.439 50.5334 187.773 51.2534 188.093 51.8134C188.439 52.3734 188.746 52.8134 189.013 53.1334C189.306 53.4534 189.573 53.6801 189.813 53.8134C190.079 53.9468 190.319 54.0401 190.533 54.0934C190.826 54.2001 191.106 54.2668 191.373 54.2934C191.666 54.3201 191.919 54.3334 192.133 54.3334C192.399 54.3334 192.533 54.4134 192.533 54.5734C192.533 54.7068 192.453 54.7868 192.293 54.8134C192.133 54.8668 191.946 54.8934 191.733 54.8934C191.573 54.8934 191.279 54.8934 190.853 54.8934C190.453 54.8934 189.959 54.8934 189.373 54.8934C188.813 54.8934 188.186 54.8801 187.493 54.8534C186.826 54.8534 186.146 54.8401 185.453 54.8134C185.079 54.7868 184.786 54.7734 184.573 54.7734C184.359 54.7468 184.253 54.6668 184.253 54.5334C184.253 54.4001 184.346 54.3068 184.533 54.2534C184.666 54.2001 184.773 54.0934 184.853 53.9334C184.933 53.7468 184.906 53.4934 184.773 53.1734L181.053 43.3334C180.973 43.1734 180.853 43.0934 180.693 43.0934H172.093C171.906 43.0934 171.773 43.2001 171.693 43.4134L169.293 50.4934C168.919 51.5334 168.733 52.4268 168.733 53.1734C168.733 53.5734 168.893 53.8668 169.213 54.0534C169.559 54.2401 169.906 54.3334 170.253 54.3334H170.653C170.919 54.3334 171.053 54.4134 171.053 54.5734C171.053 54.7868 170.853 54.8934 170.453 54.8934C170.213 54.8934 169.933 54.8801 169.613 54.8534C169.293 54.8534 168.986 54.8401 168.693 54.8134C168.399 54.8134 168.119 54.8001 167.853 54.7734C167.613 54.7734 167.439 54.7734 167.333 54.7734C167.226 54.7734 167.013 54.7734 166.693 54.7734C166.399 54.8001 166.039 54.8134 165.613 54.8134C165.186 54.8401 164.733 54.8534 164.253 54.8534C163.773 54.8801 163.293 54.8934 162.813 54.8934C162.306 54.8934 162.053 54.7868 162.053 54.5734C162.053 54.4134 162.173 54.3334 162.413 54.3334C162.546 54.3334 162.733 54.3334 162.973 54.3334C163.213 54.3068 163.413 54.2801 163.573 54.2534C164.506 54.1201 165.199 53.7201 165.653 53.0534C166.133 52.3601 166.559 51.5068 166.933 50.4934ZM172.533 41.6534H180.173C180.333 41.6534 180.386 41.5601 180.333 41.3734L176.533 30.5734C176.319 29.9868 176.119 29.9868 175.933 30.5734L172.413 41.3734C172.333 41.5601 172.373 41.6534 172.533 41.6534ZM198.821 30.2934L199.341 49.4534C199.367 50.2801 199.407 50.9734 199.461 51.5334C199.541 52.0668 199.634 52.5201 199.741 52.8934C199.874 53.2401 200.034 53.5068 200.221 53.6934C200.407 53.8801 200.634 54.0134 200.901 54.0934C201.274 54.2001 201.647 54.2668 202.021 54.2934C202.421 54.3201 202.714 54.3334 202.901 54.3334C203.114 54.3334 203.221 54.4134 203.221 54.5734C203.221 54.7868 202.981 54.8934 202.501 54.8934C201.354 54.8934 200.407 54.8668 199.661 54.8134C198.914 54.7868 198.447 54.7734 198.261 54.7734C198.074 54.7734 197.607 54.7868 196.861 54.8134C196.141 54.8668 195.327 54.8934 194.421 54.8934C193.994 54.8934 193.781 54.7868 193.781 54.5734C193.781 54.4134 193.887 54.3334 194.101 54.3334C194.261 54.3334 194.501 54.3201 194.821 54.2934C195.141 54.2668 195.447 54.2001 195.741 54.0934C196.247 53.9601 196.567 53.5334 196.701 52.8134C196.861 52.0934 196.941 50.8268 196.941 49.0134L196.981 26.0934C196.981 25.3201 197.007 24.8001 197.061 24.5334C197.141 24.2401 197.261 24.0934 197.421 24.0934C197.581 24.0934 197.794 24.2534 198.061 24.5734C198.354 24.8934 198.607 25.1601 198.821 25.3734C198.981 25.5334 199.434 26.0401 200.181 26.8934C200.954 27.7201 201.927 28.7601 203.101 30.0134C204.274 31.2668 205.581 32.6801 207.021 34.2534C208.487 35.8268 209.994 37.4401 211.541 39.0934C212.527 40.1601 213.514 41.2401 214.501 42.3334C215.514 43.4268 216.461 44.4534 217.341 45.4134C218.221 46.3734 218.994 47.2268 219.661 47.9734C220.327 48.6934 220.821 49.2134 221.141 49.5334L220.701 29.2134C220.674 27.9068 220.554 26.9868 220.341 26.4534C220.154 25.9201 219.754 25.5734 219.141 25.4134C218.767 25.3334 218.381 25.2801 217.981 25.2534C217.607 25.2268 217.341 25.2134 217.181 25.2134C216.967 25.2134 216.861 25.1201 216.861 24.9334C216.861 24.7468 217.127 24.6534 217.661 24.6534C218.114 24.6534 218.554 24.6668 218.981 24.6934C219.434 24.6934 219.847 24.7068 220.221 24.7334C220.621 24.7334 220.954 24.7468 221.221 24.7734C221.514 24.7734 221.714 24.7734 221.821 24.7734C222.034 24.7734 222.447 24.7601 223.061 24.7334C223.674 24.6801 224.394 24.6534 225.221 24.6534C225.701 24.6534 225.941 24.7468 225.941 24.9334C225.941 25.1201 225.794 25.2134 225.501 25.2134C225.394 25.2134 225.261 25.2268 225.101 25.2534C224.967 25.2534 224.781 25.2801 224.541 25.3334C223.874 25.4668 223.461 25.8001 223.301 26.3334C223.141 26.8401 223.061 27.6934 223.061 28.8934L222.981 52.3334C222.981 53.0001 222.967 53.5201 222.941 53.8934C222.941 54.2668 222.927 54.5468 222.901 54.7334C222.874 54.9201 222.834 55.0401 222.781 55.0934C222.754 55.1468 222.701 55.1734 222.621 55.1734C222.541 55.1734 222.434 55.1334 222.301 55.0534C222.194 55.0001 222.034 54.8801 221.821 54.6934C221.607 54.5068 221.327 54.2534 220.981 53.9334C220.661 53.5868 220.234 53.1468 219.701 52.6134C219.594 52.5068 219.181 52.1068 218.461 51.4134C217.767 50.6934 216.914 49.8134 215.901 48.7734C214.887 47.7068 213.794 46.5601 212.621 45.3334C211.447 44.1068 210.327 42.9201 209.261 41.7734C208.087 40.5201 206.941 39.2934 205.821 38.0934C204.727 36.8668 203.714 35.7334 202.781 34.6934C201.847 33.6534 201.034 32.7601 200.341 32.0134C199.647 31.2401 199.141 30.6668 198.821 30.2934ZM230.576 39.7334C230.576 38.6668 230.709 37.5334 230.976 36.3334C231.242 35.1334 231.656 33.9601 232.216 32.8134C232.776 31.6401 233.469 30.5334 234.296 29.4934C235.149 28.4268 236.162 27.4934 237.336 26.6934C238.509 25.8934 239.842 25.2668 241.336 24.8134C242.829 24.3334 244.496 24.0934 246.336 24.0934C248.576 24.0934 250.656 24.4401 252.576 25.1334C254.496 25.8268 256.149 26.8268 257.536 28.1334C258.949 29.4134 260.056 30.9868 260.856 32.8534C261.656 34.6934 262.056 36.7734 262.056 39.0934C262.056 41.3334 261.669 43.4534 260.896 45.4534C260.149 47.4268 259.082 49.1601 257.696 50.6534C256.309 52.1201 254.629 53.2934 252.656 54.1734C250.682 55.0268 248.496 55.4534 246.096 55.4534C243.349 55.4534 240.989 54.9734 239.016 54.0134C237.069 53.0534 235.469 51.8134 234.216 50.2934C232.962 48.7734 232.042 47.0934 231.456 45.2534C230.869 43.3868 230.576 41.5468 230.576 39.7334ZM234.376 38.6134C234.376 40.9334 234.696 43.0401 235.336 44.9334C236.002 46.8268 236.909 48.4401 238.056 49.7734C239.229 51.1068 240.589 52.1334 242.136 52.8534C243.682 53.5734 245.362 53.9334 247.176 53.9334C248.082 53.9334 249.162 53.7734 250.416 53.4534C251.669 53.1068 252.869 52.4401 254.016 51.4534C255.189 50.4668 256.176 49.0801 256.976 47.2934C257.802 45.4801 258.216 43.1201 258.216 40.2134C258.216 37.8134 257.869 35.6934 257.176 33.8534C256.509 32.0134 255.616 30.4801 254.496 29.2534C253.376 28.0001 252.082 27.0534 250.616 26.4134C249.149 25.7734 247.629 25.4534 246.056 25.4534C244.376 25.4534 242.816 25.7334 241.376 26.2934C239.962 26.8268 238.736 27.6534 237.696 28.7734C236.656 29.8668 235.842 31.2401 235.256 32.8934C234.669 34.5201 234.376 36.4268 234.376 38.6134Z" fill="white"/>
<rect x="173" y="11.2734" width="125" height="0.6" fill="#B09E80"/>
<rect y="11.2734" width="125" height="0.6" fill="#B09E80"/>
</svg>
